<?xml version="1.0" encoding="UTF-8" standalone="no"?>
<!-- Created with Inkscape (http://www.inkscape.org/) -->

<svg
   version="1.1"
   id="svg1"
   width="117.90838"
   height="117.77944"
   viewBox="0 0 117.90838 117.77944"
   sodipodi:docname="istockphoto-1473125417-612x612.jpg"
   inkscape:export-filename="logo/color-border.png"
   inkscape:export-xdpi="300"
   inkscape:export-ydpi="300"
   inkscape:version="0.0"
   inkscape:dataloss="true"
   xmlns:inkscape="http://www.inkscape.org/namespaces/inkscape"
   xmlns:sodipodi="http://sodipodi.sourceforge.net/DTD/sodipodi-0.dtd"
   xmlns="http://www.w3.org/2000/svg"
   xmlns:svg="http://www.w3.org/2000/svg">
  <defs
     id="defs1" />
  <sodipodi:namedview
     id="namedview1"
     pagecolor="#505050"
     bordercolor="#eeeeee"
     borderopacity="1"
     inkscape:showpageshadow="0"
     inkscape:pageopacity="0"
     inkscape:pagecheckerboard="0"
     inkscape:deskcolor="#505050"
     inkscape:zoom="4"
     inkscape:cx="72.375"
     inkscape:cy="68"
     inkscape:window-width="2560"
     inkscape:window-height="1371"
     inkscape:window-x="0"
     inkscape:window-y="0"
     inkscape:window-maximized="1"
     inkscape:current-layer="g1">
    <inkscape:page
       x="0"
       y="0"
       width="117.90838"
       height="117.77944"
       id="page2"
       margin="0"
       bleed="0" />
  </sodipodi:namedview>
  <g
     inkscape:groupmode="layer"
     inkscape:label="Image"
     id="g1"
     transform="translate(-38.953667,-39.030279)">
    <rect
       style="fill:#ffffff;fill-opacity:1;stroke:#3e3c8f;stroke-width:2;stroke-linecap:round;stroke-linejoin:round;stroke-dasharray:none;stroke-opacity:1;paint-order:normal"
       id="rect2"
       width="150"
       height="150"
       x="22.919998"
       y="22.919996"
       rx="16" />
    <path
       id="path1"
       style="fill:#3e3c8f;fill-opacity:1"
       d="m 102.81418,39.033979 c -0.97254,0.03944 -2.14821,0.320639 -2.52344,0.449218 -0.395885,0.135655 -0.764855,0.348105 -1.080075,0.511719 -0.31842,0.165281 -0.63476,0.433594 -0.63476,0.433594 0,0 -13.97324,9.321514 -22.205081,15.269531 -10.293634,7.437791 -22.260229,15.601525 -33.067735,23.837503 -0.126513,0.09641 -0.253608,0.192677 -0.371717,0.299216 -0.144297,0.130162 -0.27679,0.272955 -0.410281,0.414178 -0.285306,0.301833 -0.562287,0.611584 -0.834483,0.925291 -0.371348,0.427979 -0.796602,0.819841 -1.089221,1.305062 -0.64846,1.075276 -1.179334,2.25431 -1.431641,3.484375 -0.274482,1.338174 -0.269292,2.748013 -0.06055,4.097656 0.187533,1.212491 0.621299,2.389913 1.164063,3.490235 0.54196,1.098693 1.239658,2.13377 2.058593,3.044922 0.175079,0.194792 0.353943,0.388455 0.535157,0.580078 -0.119547,0.101302 -0.910899,0.78079 -1.59961,1.601562 -0.933895,1.112971 -1.272684,2.332641 -1.43164,3.484371 -0.201412,1.45935 -0.269292,2.74607 -0.06055,4.09571 0.187533,1.21249 0.621298,2.39186 1.164062,3.49218 0.54196,1.09869 1.239659,2.13378 2.058594,3.04493 0.207614,0.23099 0.418438,0.45935 0.634766,0.68554 0,0 -0.815332,0.53339 -1.5625,1.42383 -0.933895,1.11297 -1.272685,2.33265 -1.431641,3.48438 -0.201412,1.45935 -0.269292,2.74801 -0.06055,4.09765 0.187533,1.21249 0.621299,2.39187 1.164063,3.49219 0.54196,1.09869 1.239658,2.13182 2.058593,3.04297 1.175037,1.30735 2.479647,2.57261 4.029297,3.40234 4.58256,2.45366 47.500003,23.4336 47.500003,23.4336 0,0 2.09015,0.8717 2.56054,0.85156 0.46836,-0.02 1.10352,-0.48242 1.10352,-0.48242 l 57.048834,-44.66602 c 0,0 0.30222,-0.25115 0.46093,-0.38867 0.30468,-0.264 0.37166,-0.48986 0.36133,-1.08399 -0.0116,-0.66515 -0.18642,-1.03984 -0.72265,-1.50976 -0.39128,-0.3429 -1.09793,-0.8602 -1.61524,-1.17188 -0.43401,-0.2615 -0.86894,-0.6109 -1.4043,-0.58984 -0.3836,0.0151 -0.97656,0.49219 -0.97656,0.49219 l -53.921865,42.72656 c 0,0 -0.64527,0.51283 -0.85156,0.53516 -0.25876,0.028 -0.84766,-0.29102 -0.84766,-0.29102 l -44.53125,-21.78516 c 0,0 -0.87388,-0.32546 -1.238281,-0.60546 -0.72897,-0.56014 -1.749798,-1.60405 -2.388672,-2.28125 -0.358104,-0.37959 -0.427619,-0.40502 -0.595704,-0.64454 -0.201863,-0.28766 -0.65625,-1.15625 -0.65625,-1.15625 l -0.785156,-1.59179 c 0,0 -0.236558,-0.53074 -0.308594,-0.81055 -0.08269,-0.3212 -0.138671,-0.98437 -0.138671,-0.98437 l -0.05273,-1.37305 c 0,0 0.01089,-0.48354 0.103516,-0.72266 0.07258,-0.18738 0.291015,-0.47656 0.291016,-0.47656 0,0 0.35254,-0.81764 1.197265,-0.89062 0.70232,-0.0607 1.642578,0.2871 1.642578,0.2871 9.747875,4.92738 45.462888,22.38672 45.462888,22.38672 0,0 2.09016,0.86975 2.56055,0.84961 0.46836,-0.02 1.10352,-0.48047 1.10352,-0.48047 l 57.04882,-44.666011 c 0,0 0.30223,-0.25115 0.46094,-0.388672 0.30468,-0.263994 0.36971,-0.489849 0.35937,-1.083984 -0.0116,-0.665144 -0.18642,-1.041793 -0.72265,-1.511719 -0.39128,-0.342901 -1.09793,-0.858241 -1.61524,-1.169922 -0.43401,-0.2615 -0.86698,-0.610903 -1.40234,-0.589843 -0.3836,0.01509 -0.97656,0.492187 -0.97656,0.492187 L 97.4177,133.90898 c 0,0 -0.64527,0.51087 -0.85156,0.5332 -0.25876,0.028 -0.84765,-0.29102 -0.84765,-0.29102 L 51.185277,112.36601 c 0,0 -0.87388,-0.32547 -1.238281,-0.60547 -0.72897,-0.56014 -1.747845,-1.60405 -2.386719,-2.28125 -0.358104,-0.37959 -0.429571,-0.40306 -0.597656,-0.64258 -0.201863,-0.28766 -0.654297,-1.15625 -0.654297,-1.15625 l -0.785156,-1.5918 c 0,0 -0.236558,-0.53073 -0.308594,-0.81054 -0.08269,-0.3212 -0.138672,-0.98633 -0.138672,-0.98633 l -0.05273,-1.37305 c 0,0 0.01089,-0.48158 0.103516,-0.7207 0.07258,-0.18738 0.289062,-0.47656 0.289062,-0.47656 0,0 0.354494,-0.81764 1.199219,-0.89063 0.70232,-0.0607 1.576172,0.11328 1.576172,0.11328 9.441095,4.7808 45.666018,22.48828 45.666018,22.48829 0,0 2.09015,0.8717 2.56054,0.85156 0.46836,-0.02 1.10352,-0.48242 1.10352,-0.48242 L 154.57005,79.135541 c 0,0 0.30222,-0.25115 0.46093,-0.388672 0.30468,-0.263994 0.36972,-0.489849 0.35938,-1.083984 -0.0116,-0.665144 -0.18643,-1.03984 -0.72266,-1.509766 -0.39128,-0.342901 -1.09793,-0.860194 -1.61523,-1.171875 -0.43401,-0.2615 -0.86698,-0.610904 -1.40234,-0.589844 -0.38361,0.01509 -0.97657,0.492188 -0.97657,0.492188 L 96.751689,117.61015 c 0,0 -0.64528,0.51283 -0.85156,0.53516 -0.25877,0.028 -0.84766,-0.29102 -0.84766,-0.29102 L 50.521215,96.069135 c 0,0 -0.787446,-0.360563 -1.273381,-0.684762 -0.764746,-0.510213 -1.714698,-1.524752 -2.353572,-2.201957 -0.358104,-0.379588 -0.451669,-0.482348 -0.619754,-0.721871 -0.201863,-0.287657 -0.632199,-1.07891 -0.6322,-1.07891 l -0.785156,-1.591797 c 0,0 -0.236556,-0.53074 -0.308594,-0.810547 -0.08269,-0.321199 -0.138671,-0.984375 -0.138671,-0.984375 l -0.05273,-1.373047 c 0,0 0.01849,-0.480734 0.103516,-0.722656 0.08915,-0.253674 0.211722,-0.515233 0.211722,-0.515233 0,0 0.431834,-0.778956 1.276559,-0.851955 0.316004,-0.02731 0.684134,0.0075 0.993507,0.0541 0.377274,0.0568 0.676268,0.181067 0.71832,0.197738 l 0.599497,0.240048 44.841779,21.756819 c 0,0 1.405645,0.82975 2.238866,0.74345 0.74675,-0.0773 1.803883,-1.02406 1.803883,-1.02406 L 154.55833,62.110149 c 0,0 0.70324,-0.476103 0.68554,-1.183593 -0.0158,-0.630899 -0.89062,-0.882813 -0.89062,-0.882813 l -25.26562,-10.78125 -23.28126,-9.953125 c 0,0 -1.97631,-0.316592 -2.99218,-0.27539 z"
       sodipodi:nodetypes="ssscsaaaaaassscssssscssssssccccsssssccsccsssccsccscscccccsssssccsccsssccsccscscccccsssssccsccsssccsccscsssccsccscccss"
       inkscape:export-filename="logo/color-only.png"
       inkscape:export-xdpi="300"
       inkscape:export-ydpi="300" />
  </g>
</svg>
