<?xml version="1.0" encoding="UTF-8"?>
<!-- Created with Inkscape (http://www.inkscape.org/) -->
<svg width="128.41" height="143.18" version="1.1" viewBox="0 0 128.41 143.18" xml:space="preserve" xmlns="http://www.w3.org/2000/svg"><g transform="translate(-154.94 -154.14)"><g transform="matrix(1.0697 0 0 1.0697 125.3 120.08)" stroke-linecap="round" stroke-linejoin="round" stroke-miterlimit="0"><path transform="translate(15.541 15.337)" d="m129.71 116.64c-2.6571 4.6022-52.213 33.213-57.527 33.213s-54.87-28.611-57.527-33.213c-2.6571-4.6022-2.6571-61.824 1e-6 -66.426 2.6571-4.6022 52.213-33.213 57.527-33.213s54.87 28.611 57.527 33.213c2.657 4.6022 2.657 61.824 0 66.426z" fill="#3e3c8f" stroke="#5551fc" style="paint-order:markers fill stroke"/><g transform="matrix(1.6019 0 0 1.6019 -68.445 -38.788)" fill="#fff"><g stroke-width="16"><rect x="76.889" y="68.611" width="7" height="4.7" rx=".5" ry=".5" style="paint-order:stroke fill markers"/><rect x="76.889" y="80.685" width="7" height="27.112" rx=".5" ry=".5" style="paint-order:stroke fill markers"/><rect x="86.541" y="73.527" width="10" height="5" rx=".5" ry=".5" style="paint-order:stroke fill markers"/><rect x="86.541" y="83.36" width="10" height="24.581" rx=".5" ry=".5" style="paint-order:stroke fill markers"/><rect transform="rotate(-3)" x="93.935" y="68.995" width="7.5" height="5" rx=".5" ry=".5" style="paint-order:stroke fill markers"/></g><rect transform="rotate(-3)" x="93.935" y="76.195" width="7.5" height="31.849" rx=".43663" ry=".5" stroke-width="14.952" style="paint-order:stroke fill markers"/><rect transform="rotate(-3)" x="93.935" y="110.5" width="7.5" height="2.505" rx=".52024" ry=".5" stroke-width="16.321" style="paint-order:stroke fill markers"/><rect transform="rotate(-10)" x="92.43" y="88.505" width="8" height="5" rx=".5" ry=".5" stroke-width="16" style="paint-order:stroke fill markers"/><rect transform="rotate(-10)" x="92.43" y="96.168" width="8" height="30" rx=".5" ry=".5" stroke-width="16" style="paint-order:stroke fill markers"/></g></g></g></svg>
