<?xml version="1.0" encoding="UTF-8"?>
<!-- Created with Inkscape (http://www.inkscape.org/) -->
<svg width="471.45" height="165.71" version="1.1" viewBox="0 0 471.45 165.71" xml:space="preserve" xmlns="http://www.w3.org/2000/svg"><g transform="translate(-120.89 -142.88)"><path d="m319.32 239.12q0 4.94-5.1612 4.94-2.5069 0-3.9815-1.2534-1.4746-1.2534-1.4746-3.6866v-31.483q0-8.258 4.3502-12.387 4.3502-4.2027 14.599-4.2027 7.5944 0 11.871 4.0552 4.3502 4.0552 4.3502 13.051 0 7.8156-4.129 11.945-4.0552 4.129-11.502 4.129-4.2027 0-6.1197 0.66358-1.8433 0.58986-2.3594 2.2857-0.44239 1.6221-0.44239 4.7926zm-0.66358-21.308q0.88478-0.73732 1.6958-1.2534 0.81105-0.58985 2.1382-0.88478 1.4009-0.36866 3.6866-0.36866 3.1705 0 5.0138-0.51612 1.8433-0.58985 2.5806-2.1382 0.81104-1.5484 0.81104-4.4976 0-3.9078-0.95851-5.6773-0.88478-1.8433-2.5806-2.3594-1.6221-0.58985-3.9815-0.58985-4.2764 0-6.046 1.5484-1.6958 1.5484-1.6958 5.3824 0 2.7281-0.14746 5.9723-0.14746 3.2442-0.51612 5.3824zm41.511 26.248q-7.3732 0-11.502-3.3917-4.129-3.4654-4.129-8.9215 0-6.4147 5.3824-9.2902 5.4562-2.8755 15.926-1.9908-0.51612-3.3917-2.1382-4.5714-1.6221-1.2534-3.9078-1.2534-1.8433 0-3.0967 0.22119-1.1797 0.14746-2.212 0.36866-1.0322 0.22119-2.5069 0.22119-1.9908 0-3.1705-0.66358-1.1797-0.73732-1.1797-2.8755 0-3.023 2.5806-4.4239 2.6543-1.4746 8.3317-1.4746 8.9953 0 13.345 5.1612 4.3502 5.0875 4.3502 13.64 0 9.88-3.6129 14.599-3.5391 4.6451-12.461 4.6451zm-5.0138-12.313q0 4.2027 5.6773 4.2027 1.8433 0 2.8755-0.66359 1.0322-0.66358 1.4746-2.6543 0.51612-1.9908 0.73732-5.9723-0.36866 0.36866-0.95851 0.51612-0.58986 0.14747-1.1797 0.14747-4.8663 0-6.7833 0.95851-1.8433 0.88478-1.8433 3.4654zm33.474 28.682q-5.3824 0-5.3824-5.7511v-29.05q0-10.028 4.4239-14.968 4.4239-4.94 12.387-4.94 8.1105 0 12.756 5.1612 4.7188 5.1612 4.7188 15.115 0 6.6358-1.917 10.617-1.917 3.9078-5.3087 5.6773t-7.8156 1.7696q-3.834 0-6.3409-1.106-2.4331-1.106-3.834-3.3917 0.51613 1.4746 0.73732 2.8755 0.29493 1.4009 0.36866 3.2442 0.14746 1.8433 0.14746 4.7188v4.2764q0 5.7511-4.94 5.7511zm11.945-24.995q3.0967 0 4.7926-2.1382 1.7696-2.212 1.7696-8.258 0-6.046-1.7696-8.1842-1.6958-2.212-4.7926-2.212-3.0967 0-4.8663 2.212-1.6958 2.1382-1.6958 8.1842 0 6.046 1.6958 8.258 1.7696 2.1382 4.8663 2.1382zm29.345 24.995q-10.249 0-10.249-5.8985 0-2.1382 1.1797-2.8755 1.1797-0.66359 3.1705-0.66359 2.0645 0 3.6129 0.29493 1.5484 0.36866 3.4654 0.36866 2.1382 0 3.023-0.51612 0.88478-0.51613 0.88478-1.917 0-0.88478-0.36866-2.2857t-1.4746-4.129q-1.0322-2.7281-3.023-7.5206l-9.2165-22.341q-0.44239-1.106-0.44239-2.3594 0-2.5069 1.8433-3.6128 1.8433-1.1797 3.834-1.1797 1.8433 0 2.9493 0.95851 1.1797 0.88478 1.6958 2.3594l9.2165 23.889q2.8018-5.6773 3.6866-9.7326 0.95851-4.0552 0.81105-7.4469-0.0737-2.1382-0.29493-3.4654-0.14746-1.4009-0.2212-1.7696-0.29492-2.3594 1.4009-3.5391 1.7696-1.2534 4.129-1.2534 2.1382 0 3.2442 0.95851 1.1797 0.88478 1.6958 2.5069 0.36866 1.1797 0.44239 2.7281 0.14747 1.4746 0.14747 2.4332 0 3.834-0.73732 7.8156-0.66358 3.9815-1.9908 7.5206-1.2534 3.4654-3.1705 6.046-0.29492 0.36866-1.106 1.4746-0.73732 1.106-1.8433 2.212-1.106 1.0322-2.2857 1.4746 1.2534 1.3272 1.7696 3.4654 0.51612 2.212 0.51612 4.5714 0 5.0138-3.9078 8.1842-3.834 3.2442-12.387 3.2442zm37.603-16.368q-5.3087 0-5.3087-5.0138v-27.944q0-5.0875 5.3087-5.0875 2.6543 0 3.834 1.1797 1.1797 1.106 1.1797 3.6866 1.3272-2.4332 3.7603-3.6128 2.5069-1.2534 5.8248-1.2534 6.3409 0 6.3409 5.5299 0 2.0645-1.5484 3.0967-1.5484 1.0322-5.0875 1.0322-3.4654 0-5.4562 0.66358-1.9908 0.58986-2.8018 2.2857-0.73732 1.6221-0.73732 4.7188v15.705q0 5.0138-5.3087 5.0138zm39.52 0q-4.8663 0-8.5529-1.9908-3.6866-1.9908-5.7511-5.6036-1.9908-3.6128-1.9908-8.4054v-17.253q0-5.0138 5.3087-5.0138t5.3087 5.0138v17.106q0 3.4654 1.4746 5.3824 1.4746 1.917 4.2027 1.917 2.7281 0 4.2027-1.917 1.4746-1.917 1.4746-5.3824v-17.106q0-5.0138 5.3087-5.0138 5.3087 0 5.3087 5.0138v17.253q0 4.7926-2.0645 8.4054-1.9908 3.6128-5.6773 5.6036-3.6128 1.9908-8.5529 1.9908zm36.423 0q-13.862 0-13.862-6.1197 0-1.917 1.0322-3.023 1.0322-1.106 2.7281-1.106 0.73732 0 1.4009 0.22119 0.73731 0.14747 2.8018 0.81105 0.88478 0.29493 2.3594 0.58985 1.4746 0.29493 2.8755 0.29493 2.6543 0 3.7603-0.66358 1.106-0.66359 1.106-2.212 0-1.2534-0.58985-1.917-0.58985-0.73732-2.5069-1.4009-1.917-0.66359-5.9723-1.8433-3.6866-1.0322-5.9723-3.6866-2.212-2.7281-2.212-6.7096 0-5.6036 4.0552-8.5529t11.133-2.9493q5.3087 0 8.3317 1.4746 3.023 1.4746 3.023 4.2764 0 1.7696-1.0322 2.9493-1.0322 1.1797-2.8018 1.1797-0.73732 0-1.7696-0.2212-0.95851-0.22119-2.3594-0.58985-1.0322-0.36866-2.212-0.58985-1.106-0.2212-2.3594-0.2212-3.5391 0-3.5391 2.5069 0 1.4746 1.4009 2.5069 1.4009 0.95851 5.3824 2.1382 5.4562 1.6221 8.0368 4.3502 2.5806 2.6543 2.5806 7.0782 0 5.1612-3.9815 8.3317-3.9078 3.0967-10.839 3.0967z" fill="#343434" stroke-width=".86404" aria-label="Papyrus"/><g transform="matrix(1.0697 0 0 1.0697 125.3 120.08)" stroke-linecap="round" stroke-linejoin="round" stroke-miterlimit="0"><path transform="translate(15.541 15.337)" d="m129.71 116.64c-2.6571 4.6022-52.213 33.213-57.527 33.213s-54.87-28.611-57.527-33.213c-2.6571-4.6022-2.6571-61.824 1e-6 -66.426 2.6571-4.6022 52.213-33.213 57.527-33.213s54.87 28.611 57.527 33.213c2.657 4.6022 2.657 61.824 0 66.426z" fill="#3e3c8f" stroke="#343434" style="paint-order:markers fill stroke"/><g transform="matrix(1.6019 0 0 1.6019 -68.445 -38.788)" fill="#fff"><g stroke-width="16"><rect x="76.889" y="68.611" width="7" height="4.7" rx=".5" ry=".5" style="paint-order:stroke fill markers"/><rect x="76.889" y="80.685" width="7" height="27.112" rx=".5" ry=".5" style="paint-order:stroke fill markers"/><rect x="86.541" y="73.527" width="10" height="5" rx=".5" ry=".5" style="paint-order:stroke fill markers"/><rect x="86.541" y="83.36" width="10" height="24.581" rx=".5" ry=".5" style="paint-order:stroke fill markers"/><rect transform="rotate(-3)" x="93.935" y="68.995" width="7.5" height="5" rx=".5" ry=".5" style="paint-order:stroke fill markers"/></g><rect transform="rotate(-3)" x="93.935" y="76.195" width="7.5" height="31.849" rx=".43663" ry=".5" stroke-width="14.952" style="paint-order:stroke fill markers"/><rect transform="rotate(-3)" x="93.935" y="110.5" width="7.5" height="2.505" rx=".52024" ry=".5" stroke-width="16.321" style="paint-order:stroke fill markers"/><rect transform="rotate(-10)" x="92.43" y="88.505" width="8" height="5" rx=".5" ry=".5" stroke-width="16" style="paint-order:stroke fill markers"/><rect transform="rotate(-10)" x="92.43" y="96.168" width="8" height="30" rx=".5" ry=".5" stroke-width="16" style="paint-order:stroke fill markers"/></g></g></g></svg>
