<?xml version="1.0" encoding="UTF-8" standalone="no"?>
<!-- Created with Inkscape (http://www.inkscape.org/) -->

<svg
   width="471.45035"
   height="165.71432"
   viewBox="0 0 471.45035 165.71432"
   version="1.1"
   id="svg1"
   xml:space="preserve"
   inkscape:version="1.4 (e7c3feb100, 2024-10-09)"
   sodipodi:docname="logo-light-inkscape.svg"
   xmlns:inkscape="http://www.inkscape.org/namespaces/inkscape"
   xmlns:sodipodi="http://sodipodi.sourceforge.net/DTD/sodipodi-0.dtd"
   xmlns="http://www.w3.org/2000/svg"
   xmlns:svg="http://www.w3.org/2000/svg"><sodipodi:namedview
     id="namedview1"
     pagecolor="#ffffff"
     bordercolor="#eeeeee"
     borderopacity="1"
     inkscape:showpageshadow="0"
     inkscape:pageopacity="0"
     inkscape:pagecheckerboard="0"
     inkscape:deskcolor="#505050"
     inkscape:document-units="px"
     inkscape:zoom="2.5108225"
     inkscape:cx="189.18104"
     inkscape:cy="39.827586"
     inkscape:window-width="2560"
     inkscape:window-height="1371"
     inkscape:window-x="0"
     inkscape:window-y="0"
     inkscape:window-maximized="1"
     inkscape:current-layer="layer1" /><defs
     id="defs1" /><g
     inkscape:label="Layer 1"
     inkscape:groupmode="layer"
     id="layer1"
     transform="translate(-120.88699,-142.87731)"><path
       d="m 319.32478,239.11678 q 0,4.94002 -5.16122,4.94002 -2.50687,0 -3.98151,-1.25344 -1.47463,-1.25343 -1.47463,-3.68658 v -31.48344 q 0,-8.25795 4.35017,-12.38692 4.35017,-4.20271 14.59887,-4.20271 7.59437,0 11.87081,4.05525 4.35017,4.05524 4.35017,13.05051 0,7.81556 -4.12898,11.94453 -4.05524,4.12898 -11.50214,4.12898 -4.20271,0 -6.11973,0.66358 -1.84329,0.58986 -2.35942,2.28568 -0.44239,1.6221 -0.44239,4.79256 z m -0.66358,-21.30846 q 0.88478,-0.73732 1.69583,-1.25344 0.81105,-0.58985 2.13822,-0.88478 1.4009,-0.36866 3.68658,-0.36866 3.17046,0 5.01376,-0.51612 1.84329,-0.58985 2.58061,-2.13822 0.81104,-1.54837 0.81104,-4.49763 0,-3.90778 -0.95851,-5.67734 -0.88478,-1.8433 -2.58061,-2.35942 -1.62209,-0.58985 -3.98151,-0.58985 -4.27644,0 -6.046,1.54836 -1.69583,1.54837 -1.69583,5.38242 0,2.72807 -0.14746,5.97226 -0.14746,3.2442 -0.51612,5.38242 z m 41.51092,26.24848 q -7.37317,0 -11.50215,-3.39166 -4.12897,-3.46538 -4.12897,-8.92153 0,-6.41466 5.38241,-9.29019 5.45615,-2.87554 15.92605,-1.99076 -0.51612,-3.39166 -2.13822,-4.57137 -1.6221,-1.25343 -3.90778,-1.25343 -1.84329,0 -3.09673,0.22119 -1.17971,0.14746 -2.21195,0.36866 -1.03225,0.22119 -2.50688,0.22119 -1.99076,0 -3.17046,-0.66358 -1.17971,-0.73732 -1.17971,-2.87554 0,-3.023 2.58061,-4.4239 2.65434,-1.47463 8.33168,-1.47463 8.99527,0 13.34544,5.16122 4.35017,5.08748 4.35017,13.64036 0,9.88005 -3.61286,14.59888 -3.53912,4.64509 -12.46065,4.64509 z m -5.01376,-12.31319 q 0,4.20271 5.67734,4.20271 1.84329,0 2.87554,-0.66359 1.03224,-0.66358 1.47463,-2.65434 0.51612,-1.99076 0.73732,-5.97227 -0.36866,0.36866 -0.95851,0.51612 -0.58986,0.14747 -1.17971,0.14747 -4.86629,0 -6.78332,0.95851 -1.84329,0.88478 -1.84329,3.46539 z m 33.47413,28.68163 q -5.38241,0 -5.38241,-5.75107 v -29.05029 q 0,-10.02751 4.4239,-14.96754 4.4239,-4.94002 12.38692,-4.94002 8.11049,0 12.75559,5.16122 4.71883,5.16122 4.71883,15.115 0,6.63585 -1.91703,10.61736 -1.91702,3.90778 -5.30868,5.67734 -3.39166,1.76956 -7.81556,1.76956 -3.83405,0 -6.34093,-1.10597 -2.43314,-1.10598 -3.83405,-3.39166 0.51613,1.47463 0.73732,2.87554 0.29493,1.4009 0.36866,3.24419 0.14746,1.84329 0.14746,4.71883 v 4.27644 q 0,5.75107 -4.94002,5.75107 z m 11.94453,-24.99505 q 3.09674,0 4.79257,-2.13821 1.76956,-2.21196 1.76956,-8.25795 0,-6.046 -1.76956,-8.18422 -1.69583,-2.21195 -4.79257,-2.21195 -3.09673,0 -4.86629,2.21195 -1.69583,2.13822 -1.69583,8.18422 0,6.04599 1.69583,8.25795 1.76956,2.13821 4.86629,2.13821 z m 29.34529,24.99505 q -10.24871,0 -10.24871,-5.89854 0,-2.13822 1.17971,-2.87553 1.17971,-0.66359 3.17046,-0.66359 2.06449,0 3.61286,0.29493 1.54836,0.36866 3.46539,0.36866 2.13822,0 3.023,-0.51612 0.88478,-0.51613 0.88478,-1.91703 0,-0.88478 -0.36866,-2.28568 -0.36866,-1.4009 -1.47464,-4.12898 -1.03224,-2.72807 -3.023,-7.52063 l -9.21646,-22.3407 q -0.44239,-1.10598 -0.44239,-2.35942 0,-2.50688 1.84329,-3.61285 1.8433,-1.17971 3.83405,-1.17971 1.8433,0 2.94927,0.95851 1.17971,0.88478 1.69583,2.35942 l 9.21646,23.88907 q 2.80181,-5.67734 3.68659,-9.73259 0.95851,-4.05524 0.81105,-7.4469 -0.0737,-2.13822 -0.29493,-3.46539 -0.14746,-1.4009 -0.2212,-1.76956 -0.29492,-2.35941 1.40091,-3.53912 1.76956,-1.25344 4.12897,-1.25344 2.13822,0 3.2442,0.95851 1.1797,0.88478 1.69582,2.50688 0.36866,1.17971 0.44239,2.72807 0.14747,1.47464 0.14747,2.43315 0,3.83405 -0.73732,7.81556 -0.66358,3.98151 -1.99075,7.52063 -1.25344,3.46539 -3.17047,6.046 -0.29492,0.36866 -1.10597,1.47464 -0.73732,1.10597 -1.8433,2.21195 -1.10597,1.03224 -2.28568,1.47463 1.25344,1.32717 1.76956,3.46539 0.51612,2.21195 0.51612,4.57137 0,5.01375 -3.90778,8.18422 -3.83404,3.24419 -12.38692,3.24419 z m 37.60314,-16.36844 q -5.30869,0 -5.30869,-5.01375 v -27.94432 q 0,-5.08748 5.30869,-5.08748 2.65434,0 3.83405,1.1797 1.1797,1.10598 1.1797,3.68659 1.32717,-2.43315 3.76032,-3.61285 2.50688,-1.25344 5.8248,-1.25344 6.34093,0 6.34093,5.52987 0,2.06449 -1.54837,3.09674 -1.54836,1.03224 -5.08748,1.03224 -3.46539,0 -5.45615,0.66358 -1.99075,0.58986 -2.8018,2.28569 -0.73732,1.62209 -0.73732,4.71883 v 15.70485 q 0,5.01375 -5.30868,5.01375 z m 39.52012,0 q -4.86629,0 -8.55287,-1.99075 -3.68659,-1.99076 -5.75108,-5.60361 -1.99075,-3.61285 -1.99075,-8.40542 v -17.25321 q 0,-5.01376 5.30868,-5.01376 5.30868,0 5.30868,5.01376 v 17.10575 q 0,3.46539 1.47464,5.38242 1.47463,1.91702 4.2027,1.91702 2.72808,0 4.20271,-1.91702 1.47463,-1.91703 1.47463,-5.38242 v -17.10575 q 0,-5.01376 5.30869,-5.01376 5.30868,0 5.30868,5.01376 v 17.25321 q 0,4.79257 -2.06449,8.40542 -1.99075,3.61285 -5.67734,5.60361 -3.61285,1.99075 -8.55288,1.99075 z m 36.4234,0 q -13.86156,0 -13.86156,-6.11973 0,-1.91702 1.03224,-3.023 1.03225,-1.10597 2.72807,-1.10597 0.73732,0 1.40091,0.22119 0.73731,0.14747 2.8018,0.81105 0.88478,0.29493 2.35942,0.58985 1.47463,0.29493 2.87553,0.29493 2.65434,0 3.76032,-0.66358 1.10597,-0.66359 1.10597,-2.21195 0,-1.25344 -0.58985,-1.91703 -0.58985,-0.73732 -2.50688,-1.4009 -1.91702,-0.66359 -5.97227,-1.84329 -3.68658,-1.03225 -5.97226,-3.68659 -2.21195,-2.72807 -2.21195,-6.70958 0,-5.60361 4.05524,-8.55288 4.05524,-2.94927 11.13349,-2.94927 5.30868,0 8.33168,1.47464 3.023,1.47463 3.023,4.27643 0,1.76957 -1.03225,2.94927 -1.03224,1.17971 -2.8018,1.17971 -0.73732,0 -1.76956,-0.2212 -0.95851,-0.22119 -2.35942,-0.58985 -1.03224,-0.36866 -2.21195,-0.58985 -1.10597,-0.2212 -2.35941,-0.2212 -3.53912,0 -3.53912,2.50688 0,1.47463 1.4009,2.50688 1.4009,0.95851 5.38241,2.13822 5.45615,1.62209 8.03676,4.35017 2.58061,2.65434 2.58061,7.07824 0,5.16122 -3.98151,8.33168 -3.90778,3.09673 -10.83856,3.09673 z"
       id="text1"
       style="font-size:73.7317px;font-family:'Madimi One';-inkscape-font-specification:'Madimi One, Normal';fill:#343434;stroke-width:0.864044"
       aria-label="Papyrus" /><g
       id="g14367"
       transform="matrix(1.0697163,0,0,1.0697163,125.29743,120.08028)"><path
         sodipodi:type="star"
         style="fill:#3e3c8f;fill-opacity:1;stroke:#343434;stroke-width:1;stroke-linecap:round;stroke-linejoin:round;stroke-miterlimit:0;stroke-dasharray:none;stroke-opacity:1;paint-order:markers fill stroke"
         id="path2727"
         inkscape:flatsided="true"
         sodipodi:sides="6"
         sodipodi:cx="72.184792"
         sodipodi:cy="83.431709"
         sodipodi:r1="66.426361"
         sodipodi:r2="57.526913"
         sodipodi:arg1="0.52359878"
         sodipodi:arg2="1.0471976"
         inkscape:rounded="0.08"
         inkscape:randomized="0"
         d="m 129.71171,116.64489 c -2.65706,4.60215 -52.21281,33.21318 -57.526919,33.21318 -5.314109,0 -54.869861,-28.61103 -57.526916,-33.21318 -2.657054,-4.60215 -2.657054,-61.824208 10e-7,-66.426362 2.657054,-4.602153 52.212807,-33.21318 57.526916,-33.21318 5.314109,0 54.869858,28.611028 57.526918,33.213181 2.65705,4.602153 2.65705,61.824211 0,66.426361 z"
         inkscape:transform-center-y="-1.0511082e-06"
         transform="translate(15.541202,15.336712)" /><g
         id="g9624"
         transform="matrix(1.6019177,0,0,1.6019177,-68.445105,-38.787766)"><rect
           style="fill:#ffffff;fill-opacity:1;stroke-width:16;stroke-linecap:round;stroke-linejoin:round;stroke-miterlimit:0;paint-order:stroke fill markers"
           id="rect9480"
           width="7"
           height="4.6999998"
           x="76.888878"
           y="68.610756"
           rx="0.5"
           ry="0.5" /><rect
           style="fill:#ffffff;fill-opacity:1;stroke-width:16;stroke-linecap:round;stroke-linejoin:round;stroke-miterlimit:0;paint-order:stroke fill markers"
           id="rect9482"
           width="7"
           height="27.111732"
           x="76.888878"
           y="80.684509"
           rx="0.5"
           ry="0.5" /><rect
           style="fill:#ffffff;fill-opacity:1;stroke-width:16;stroke-linecap:round;stroke-linejoin:round;stroke-miterlimit:0;paint-order:stroke fill markers"
           id="rect9486"
           width="10"
           height="5"
           x="86.540657"
           y="73.527016"
           rx="0.5"
           ry="0.5" /><rect
           style="fill:#ffffff;fill-opacity:1;stroke-width:16;stroke-linecap:round;stroke-linejoin:round;stroke-miterlimit:0;paint-order:stroke fill markers"
           id="rect9488"
           width="10"
           height="24.581305"
           x="86.540657"
           y="83.359543"
           rx="0.5"
           ry="0.5" /><rect
           style="fill:#ffffff;fill-opacity:1;stroke-width:16;stroke-linecap:round;stroke-linejoin:round;stroke-miterlimit:0;paint-order:stroke fill markers"
           id="rect9490"
           width="7.5"
           height="5"
           x="93.935287"
           y="68.995186"
           rx="0.5"
           ry="0.5"
           transform="rotate(-3)" /><rect
           style="fill:#ffffff;fill-opacity:1;stroke-width:14.9517;stroke-linecap:round;stroke-linejoin:round;stroke-miterlimit:0;paint-order:stroke fill markers"
           id="rect9492"
           width="7.5"
           height="31.849239"
           x="93.935287"
           y="76.195015"
           rx="0.43662742"
           ry="0.5"
           transform="rotate(-3)" /><rect
           style="fill:#ffffff;fill-opacity:1;stroke-width:16.3206;stroke-linecap:round;stroke-linejoin:round;stroke-miterlimit:0;paint-order:stroke fill markers"
           id="rect9494"
           width="7.5"
           height="2.5049963"
           x="93.935287"
           y="110.49813"
           rx="0.52023691"
           ry="0.5"
           transform="rotate(-3)" /><rect
           style="fill:#ffffff;fill-opacity:1;stroke-width:16;stroke-linecap:round;stroke-linejoin:round;stroke-miterlimit:0;paint-order:stroke fill markers"
           id="rect9548"
           width="8"
           height="5"
           x="92.429932"
           y="88.50457"
           rx="0.5"
           ry="0.5"
           transform="rotate(-10)" /><rect
           style="fill:#ffffff;fill-opacity:1;stroke-width:16;stroke-linecap:round;stroke-linejoin:round;stroke-miterlimit:0;paint-order:stroke fill markers"
           id="rect9550"
           width="8"
           height="30"
           x="92.429932"
           y="96.168159"
           rx="0.5"
           ry="0.5"
           transform="rotate(-10)" /></g></g></g></svg>
